<?xml version="1.0" encoding="UTF-8" standalone="no"?><!DOCTYPE svg PUBLIC "-//W3C//DTD SVG 1.1//EN" "http://www.w3.org/Graphics/SVG/1.1/DTD/svg11.dtd"><svg width="100%" height="100%" viewBox="0 0 400 160" version="1.1" xmlns="http://www.w3.org/2000/svg" xmlns:xlink="http://www.w3.org/1999/xlink" xml:space="preserve" xmlns:serif="http://www.serif.com/" style="fill-rule:evenodd;clip-rule:evenodd;stroke-linejoin:round;stroke-miterlimit:2;"><path d="M371.778,61.484l-14.398,-14.397l-26.747,0l-0,-18.517l-22.633,-0l-0,84.345l22.633,0l-0,-43.203l18.512,-0l-0,43.203l22.633,0l0,-51.431Zm-72.002,-14.397l-34.972,0l-14.402,14.397l0,37.028l14.402,14.403l34.972,0l0,-22.626l-26.747,-0l0,-20.577l26.747,-0l0,-22.625Zm-57.602,0l-18.512,0l-0,-18.517l-22.634,-0l0,69.942l14.402,14.403l26.744,0l-0,-22.626l-18.512,-0l-0,-20.577l18.512,-0l-0,-22.625Zm-49.374,-18.517l-22.627,-0l-0,10.289l22.627,0l-0,-10.289Zm-0,18.517l-22.627,0l-0,65.827l22.627,0l-0,-65.827Zm-30.856,0l-22.629,0l0,43.202l-8.227,-0l0,-43.202l-22.63,0l0,43.202l-8.225,-0l-0,-43.202l-22.633,0l-0,65.828l69.946,0l14.398,-14.403l0,-51.425Zm-92.573,0l-18.513,0l-0,-18.517l-22.629,-0l-0,69.942l14.4,14.403l26.742,0l-0,-22.626l-18.513,-0l-0,-20.577l18.513,-0l-0,-22.625Zm310.629,10.282l0,61.715l-30.855,20.573l-20.571,0l0,-10.289l-14.4,10.289l-18.512,0l0,-10.289l-10.283,10.289l-32.916,0l-10.289,-10.289l-2.06,10.289l-28.796,0l-11.776,-10.289l-0.66,10.289l-32.639,0l-1.155,-10.289l-8.835,10.289l-49.854,0l-10.287,-4.115l-0,4.115l-26.741,0l-30.859,-18.519l-18.513,-18.506l0,-82.289l39.089,0l18.512,18.516l84.344,0l0,-18.516l69.943,0l0,18.516l18.515,0l0,10.283l10.29,-10.283l20.567,0l18.517,-18.516l39.086,0l-0,18.516l22.63,0l18.508,18.51Z" style="fill:#6441a5;"/></svg>